<?xml version="1.0" standalone="no"?>
<!DOCTYPE svg PUBLIC "-//W3C//DTD SVG 20010904//EN"
 "http://www.w3.org/TR/2001/REC-SVG-20010904/DTD/svg10.dtd">
<svg version="1.0" xmlns="http://www.w3.org/2000/svg"
 width="512.000000pt" height="512.000000pt" viewBox="0 0 512.000000 512.000000"
 preserveAspectRatio="xMidYMid meet">
<metadata>
Created by potrace 1.14, written by Peter Selinger 2001-2017
</metadata>
<g transform="translate(0.000000,512.000000) scale(0.100000,-0.100000)"
fill="#000000" stroke="none">
<path d="M3147 4112 c-21 -11 -46 -31 -56 -44 -11 -12 -29 -34 -41 -48 -12
-14 -38 -45 -58 -69 -21 -24 -43 -50 -51 -58 -7 -8 -29 -33 -48 -56 -85 -102
-229 -271 -362 -426 -25 -30 -57 -67 -71 -84 -14 -17 -79 -94 -145 -171 -66
-78 -156 -184 -200 -236 -80 -95 -121 -143 -140 -164 -6 -6 -71 -83 -145 -171
-74 -88 -142 -167 -150 -176 -8 -8 -24 -27 -35 -40 -66 -81 -120 -145 -129
-154 -6 -5 -31 -35 -56 -65 -25 -30 -47 -57 -51 -60 -24 -21 -172 -207 -180
-226 -27 -73 7 -158 79 -196 26 -14 171 -78 322 -143 151 -64 293 -125 315
-134 22 -10 117 -51 210 -90 94 -40 188 -81 210 -91 223 -100 497 -210 527
-210 51 0 103 25 128 61 17 23 238 727 300 954 5 17 20 71 35 120 38 127 27
183 -47 238 -49 37 -96 32 -373 -33 -143 -34 -267 -63 -275 -65 -250 -58 -435
-101 -510 -120 -52 -13 -108 -26 -125 -29 -16 -3 -66 -15 -110 -25 -44 -11
-81 -18 -82 -17 -2 2 23 32 167 201 52 61 114 133 137 160 23 28 50 60 60 71
10 12 34 41 55 65 20 24 46 55 58 69 12 14 40 47 63 75 23 27 60 70 82 95 22
26 51 60 64 76 45 53 126 149 131 154 3 3 41 48 85 100 44 52 82 97 85 100 5
4 164 192 245 289 11 13 25 29 30 35 24 27 83 96 121 142 23 27 63 74 89 104
78 91 92 147 55 220 -40 79 -136 112 -213 72z"/>
</g>
</svg>
